External Loads File
version=1
nRows=62
nColumns=13
Range=5.000000e-03-10 seconds
endheader
time 	forceRightX 	forceRightY 	forceRightZ 	pointRightX 	pointRightY 	pointRightZ 	forceLeftX 	forceLeftY 	forceLeftZ 	pointLeftX 	pointLeftY 	pointLeftZ 		
0.005000 43.212840 241.076412 -0.000000 0.145184 0.187375 -0.166119 -9.518213 159.688183 -0.000000 0.338628 0.454431 -0.416526
0.010000 42.645008 240.721188 -0.000000 0.145223 0.187377 -0.166125 -9.488624 160.205690 -0.000000 0.338574 0.454459 -0.416536
0.015000 42.115421 240.369902 -0.000000 0.145255 0.187352 -0.166122 -9.405184 160.778555 -0.000000 0.338536 0.454491 -0.416528
0.020000 41.647658 240.043803 -0.000000 0.145305 0.187317 -0.166153 -9.246838 161.406281 -0.000000 0.338508 0.454506 -0.416572
0.025000 41.227740 239.766936 -0.000000 0.145357 0.187278 -0.166165 -9.024118 162.071359 -0.000000 0.338462 0.454595 -0.416594
0.030000 40.946389 239.514686 -0.000000 0.145420 0.187246 -0.166179 -8.696634 162.729740 -0.000000 0.338410 0.454580 -0.416598
0.035000 40.753380 239.254246 -0.000000 0.145457 0.187210 -0.166185 -8.322594 163.325642 -0.000000 0.338362 0.454601 -0.416603
0.040000 40.624488 238.945232 -0.000000 0.145492 0.187188 -0.166184 -7.934153 163.814289 -0.000000 0.338335 0.454632 -0.416599
0.045000 40.485929 238.577297 -0.000000 0.145538 0.187187 -0.166198 -7.579435 164.165541 -0.000000 0.338301 0.454681 -0.416599
0.050000 40.315341 238.152108 -0.000000 0.145586 0.187161 -0.166195 -7.259046 164.373816 -0.000000 0.338280 0.454688 -0.416602
0.055000 40.080822 237.682805 -0.000000 0.145621 0.187122 -0.166202 -6.998511 164.444365 -0.000000 0.338257 0.454712 -0.416610
0.060000 39.823622 237.178308 -0.000000 0.145665 0.187099 -0.166213 -6.791508 164.395457 -0.000000 0.338249 0.454716 -0.416603
0.065000 39.550880 236.661990 -0.000000 0.145703 0.187069 -0.166199 -6.651076 164.261484 -0.000000 0.338239 0.454746 -0.416603
0.070000 39.308130 236.150921 -0.000000 0.145744 0.187039 -0.166207 -6.568148 164.064600 -0.000000 0.338229 0.454752 -0.416609
0.075000 39.127223 235.657800 -0.000000 0.145764 0.187030 -0.166201 -6.549462 163.796782 -0.000000 0.338231 0.454763 -0.416611
0.080000 38.992568 235.201708 -0.000000 0.145783 0.187009 -0.166209 -6.620773 163.443259 -0.000000 0.338243 0.454767 -0.416604
0.085000 38.909038 234.799209 -0.000000 0.145809 0.187004 -0.166202 -6.780362 162.997090 -0.000000 0.338249 0.454754 -0.416605
0.090000 38.874299 234.460964 -0.000000 0.145830 0.186995 -0.166202 -7.024827 162.464383 -0.000000 0.338265 0.454755 -0.416612
0.095000 38.898974 234.189813 -0.000000 0.145848 0.186986 -0.166200 -7.335120 161.871020 -0.000000 0.338288 0.454746 -0.416604
0.100000 38.984166 233.993513 -0.000000 0.145857 0.186991 -0.166191 -7.691061 161.255249 -0.000000 0.338308 0.454746 -0.416600
0.105000 39.134131 233.877816 -0.000000 0.145861 0.186995 -0.166191 -8.056536 160.660146 -0.000000 0.338330 0.454724 -0.416605
0.110000 39.327754 233.841253 -0.000000 0.145841 0.187000 -0.166199 -8.414397 160.107834 -0.000000 0.338350 0.454723 -0.416600
0.115000 39.534839 233.874520 -0.000000 0.145843 0.187003 -0.166204 -8.775784 159.579746 -0.000000 0.338371 0.454709 -0.416598
0.120000 39.735848 233.960823 -0.000000 0.145836 0.187012 -0.166200 -9.148016 159.048799 -0.000000 0.338382 0.454697 -0.416597
0.125000 39.916211 234.075386 -0.000000 0.145810 0.187027 -0.166195 -9.520318 158.504237 -0.000000 0.338400 0.454680 -0.416599
0.130000 40.014293 234.200816 -0.000000 0.145801 0.187027 -0.166196 -9.911172 157.936780 -0.000000 0.338429 0.454686 -0.416596
0.135000 40.054370 234.311296 -0.000000 0.145780 0.187044 -0.166196 -10.280523 157.353322 -0.000000 0.338440 0.454672 -0.416600
0.140000 40.044970 234.387375 -0.000000 0.145765 0.187081 -0.166206 -10.597333 156.782906 -0.000000 0.338456 0.454637 -0.416592
0.145000 39.960745 234.422123 -0.000000 0.145738 0.187088 -0.166191 -10.865652 156.257402 -0.000000 0.338467 0.454632 -0.416594
0.150000 39.828155 234.411535 -0.000000 0.145741 0.187101 -0.166205 -11.071141 155.808221 -0.000000 0.338481 0.454627 -0.416588
0.155000 39.689363 234.355126 -0.000000 0.145723 0.187103 -0.166211 -11.204197 155.456636 -0.000000 0.338487 0.454631 -0.416584
0.160000 39.587880 234.252227 -0.000000 0.145712 0.187114 -0.166205 -11.271735 155.191241 -0.000000 0.338496 0.454608 -0.416580
0.165000 39.499678 234.112864 -0.000000 0.145715 0.187115 -0.166200 -11.329834 154.964043 -0.000000 0.338499 0.454610 -0.416580
0.170000 39.450778 233.938813 -0.000000 0.145701 0.187100 -0.166195 -11.386182 154.724725 -0.000000 0.338506 0.454605 -0.416583
0.175000 39.422054 233.739426 -0.000000 0.145695 0.187133 -0.166191 -11.448509 154.457092 -0.000000 0.338511 0.454610 -0.416577
0.180000 39.346688 233.526289 -0.000000 0.145716 0.187124 -0.166202 -11.529807 154.185303 -0.000000 0.338512 0.454615 -0.416570
0.185000 39.239662 233.291646 -0.000000 0.145726 0.187116 -0.166200 -11.595023 153.936767 -0.000000 0.338496 0.454618 -0.416575
0.190000 39.109515 233.037977 -0.000000 0.145739 0.187104 -0.166201 -11.636824 153.718043 -0.000000 0.338493 0.454623 -0.416567
0.195000 38.970280 232.782335 -0.000000 0.145754 0.187091 -0.166196 -11.653426 153.531446 -0.000000 0.338487 0.454641 -0.416561
0.200000 38.867468 232.539629 -0.000000 0.145757 0.187067 -0.166194 -11.618847 153.381844 -0.000000 0.338485 0.454647 -0.416556
0.205000 38.788206 232.322049 -0.000000 0.145781 0.187022 -0.166182 -11.532518 153.280462 -0.000000 0.338483 0.454659 -0.416557
0.210000 38.753519 232.113609 -0.000000 0.145810 0.187029 -0.166182 -11.357208 153.253315 -0.000000 0.338464 0.454701 -0.416548
0.215000 38.756306 231.882567 -0.000000 0.145839 0.187002 -0.166182 -11.076594 153.316130 -0.000000 0.338455 0.454714 -0.416555
0.220000 38.769364 231.595716 -0.000000 0.145864 0.187017 -0.166188 -10.701918 153.458881 -0.000000 0.338442 0.454747 -0.416547
0.225000 38.723108 231.242513 -0.000000 0.145889 0.186972 -0.166185 -10.289834 153.647029 -0.000000 0.338423 0.454778 -0.416553
0.230000 38.645636 230.826045 -0.000000 0.145911 0.186961 -0.166184 -9.846140 153.845007 -0.000000 0.338411 0.454798 -0.416544
0.235000 38.495239 230.384915 -0.000000 0.145954 0.186941 -0.166192 -9.424242 154.035037 -0.000000 0.338400 0.454829 -0.416542
0.240000 38.286222 229.944142 -0.000000 0.145982 0.186903 -0.166186 -9.039954 154.217666 -0.000000 0.338373 0.454865 -0.416536
0.245000 38.043822 229.503332 -0.000000 0.146013 0.186881 -0.166177 -8.704043 154.389137 -0.000000 0.338355 0.454888 -0.416524
0.250000 37.735889 229.060445 -0.000000 0.146045 0.186837 -0.166187 -8.455995 154.544552 -0.000000 0.338337 0.454926 -0.416526
0.255000 37.384315 228.618076 -0.000000 0.146081 0.186802 -0.166184 -8.284000 154.684846 -0.000000 0.338288 0.454945 -0.416489
0.260000 37.036120 228.203607 -0.000000 0.146126 0.186766 -0.166187 -8.147139 154.820616 -0.000000 0.338273 0.454983 -0.416525
0.265000 36.724916 227.869837 -0.000000 0.146163 0.186716 -0.166177 -7.999684 154.988062 -0.000000 0.338240 0.455015 -0.416520
0.270000 36.492578 227.657667 -0.000000 0.146215 0.186678 -0.166166 -7.792774 155.221149 -0.000000 0.338196 0.455055 -0.416522
0.275000 36.382385 227.567373 -0.000000 0.146263 0.186649 -0.166164 -7.499667 155.508934 -0.000000 0.338165 0.455088 -0.416524
0.280000 36.364935 227.579517 -0.000000 0.146287 0.186620 -0.166172 -7.161072 155.808894 -0.000000 0.338113 0.455123 -0.416531
0.285000 36.400681 227.677709 -0.000000 0.146348 0.186580 -0.166160 -6.837384 156.078803 -0.000000 0.338062 0.455156 -0.416533
0.290000 36.520420 227.855036 -0.000000 0.146371 0.186526 -0.166167 -6.547924 156.290397 -0.000000 0.338024 0.455215 -0.416537
0.295000 36.712901 228.118614 -0.000000 0.146434 0.186492 -0.166153 -6.326820 156.431229 -0.000000 0.337985 0.455236 -0.416540
0.300000 36.935612 228.454727 -0.000000 0.146492 0.186436 -0.166155 -6.208076 156.489245 -0.000000 0.337936 0.455284 -0.416536
0.305000 37.189248 228.800649 -0.000000 0.146534 0.186386 -0.166162 -6.176173 156.442328 -0.000000 0.337893 0.455321 -0.416542
0.310000 37.399720 229.085946 -0.000000 0.146600 0.186332 -0.166155 -6.251622 156.262496 -0.000000 0.337852 0.455353 -0.416525
